<?xml version="1.0" encoding="iso-8859-1"?>
<!-- Uploaded to: SVG Repo, www.svgrepo.com, Generator: SVG Repo Mixer Tools -->
<svg height="800px" width="800px" version="1.1" id="Layer_1" xmlns="http://www.w3.org/2000/svg" xmlns:xlink="http://www.w3.org/1999/xlink" 
	 viewBox="0 0 512 512" xml:space="preserve">
<g transform="translate(1 1)">
	<g>
		<path style="fill:#FFE100;" d="M484.547,502.467H25.453c-9.387,0-17.92-8.533-17.92-17.92V25.453c0-9.387,8.533-17.92,17.92-17.92
			h458.24c10.24,0,18.773,8.533,18.773,17.92v458.24C502.467,493.933,493.933,502.467,484.547,502.467"/>
		<path style="fill:#FFE100;" d="M92.867,502.467H25.453c-9.387,0-17.92-8.533-17.92-17.92V25.453c0-9.387,8.533-17.92,17.92-17.92
			h67.413V502.467z"/>
		<path style="fill:#FFE100;" d="M484.547,502.467h-67.413V7.533h67.413c9.387,0,17.92,8.533,17.92,17.92v458.24
			C502.467,493.933,493.933,502.467,484.547,502.467"/>
	</g>
	<path style="fill:#FFA800;" d="M484.547,7.533h-25.6c9.387,0,17.92,8.533,17.92,17.92v458.24c0,10.24-8.533,17.92-17.92,17.92h25.6
		c10.24,0,17.92-8.533,17.92-17.92V25.453C502.467,16.067,493.933,7.533,484.547,7.533"/>
	<path style="fill:#FFFFFF;" d="M25.453,7.533h25.6c-9.387,0-17.92,8.533-17.92,17.92v458.24c0,10.24,8.533,18.773,17.92,18.773
		h-25.6c-9.387,0-17.92-8.533-17.92-17.92V25.453C7.533,16.067,16.067,7.533,25.453,7.533"/>
	<path style="fill:#63D3FD;" d="M348.013,348.867H161.987c-9.387,0-17.92-8.533-17.92-17.92V179.053
		c0-10.24,8.533-17.92,17.92-17.92H347.16c10.24,0,17.92,8.533,17.92,17.92v151.04C365.933,340.333,357.4,348.867,348.013,348.867"
		/>
	<path style="fill:#3DB9F9;" d="M348.013,161.133h-25.6c10.24,0,17.92,8.533,17.92,17.92v151.04c0,10.24-8.533,17.92-17.92,17.92
		h25.6c10.24,0,17.92-8.533,17.92-17.92v-151.04C365.933,169.667,357.4,161.133,348.013,161.133"/>
	<g>
		<path style="fill:#63D3FD;" d="M348.013,109.933H161.987c-9.387,0-17.92-8.533-17.92-17.92V7.533h221.867v84.48
			C365.933,101.4,357.4,109.933,348.013,109.933"/>
		<path style="fill:#63D3FD;" d="M365.933,502.467H144.067v-84.48c0-10.24,8.533-17.92,17.92-17.92H347.16
			c10.24,0,17.92,8.533,17.92,17.92v84.48H365.933z"/>
	</g>
	<g>
		<path style="fill:#3DB9F9;" d="M348.013,400.067h-25.6c10.24,0,17.92,8.533,17.92,17.92v84.48h25.6v-84.48
			C365.933,408.6,357.4,400.067,348.013,400.067"/>
		<path style="fill:#3DB9F9;" d="M348.013,109.933h-25.6c9.387,0,17.92-8.533,17.92-17.92V7.533h25.6v84.48
			C365.933,101.4,357.4,109.933,348.013,109.933"/>
	</g>
	<g>
		<path style="fill:#231F1F;" d="M484.547,511H25.453C10.947,511-1,499.053-1,484.547V25.453C-1,10.947,10.947-1,25.453-1h458.24
			C499.053-1,511,10.947,511,25.453v458.24C511,499.053,499.053,511,484.547,511z M25.453,16.067c-5.12,0-9.387,4.267-9.387,9.387
			v458.24c0,5.973,4.267,10.24,9.387,10.24h458.24c5.12,0,9.387-4.267,9.387-9.387V25.453c0.853-5.12-3.413-9.387-8.533-9.387
			H25.453z"/>
		<path style="fill:#231F1F;" d="M101.4,511H25.453C10.947,511-1,499.053-1,484.547V25.453C-1,10.947,10.947-1,25.453-1H101.4V511z
			 M25.453,16.067c-5.12,0-9.387,4.267-9.387,9.387v458.24c0,5.973,4.267,10.24,9.387,10.24h58.88V16.067H25.453z"/>
		<path style="fill:#231F1F;" d="M58.733,58.733H41.667c-5.12,0-8.533-3.413-8.533-8.533s3.413-8.533,8.533-8.533h17.067
			c5.12,0,8.533,3.413,8.533,8.533S63.853,58.733,58.733,58.733z"/>
		<path style="fill:#231F1F;" d="M58.733,92.867H41.667c-5.12,0-8.533-3.413-8.533-8.533s3.413-8.533,8.533-8.533h17.067
			c5.12,0,8.533,3.413,8.533,8.533S63.853,92.867,58.733,92.867z"/>
		<path style="fill:#231F1F;" d="M58.733,127H41.667c-5.12,0-8.533-3.413-8.533-8.533s3.413-8.533,8.533-8.533h17.067
			c5.12,0,8.533,3.413,8.533,8.533S63.853,127,58.733,127z"/>
		<path style="fill:#231F1F;" d="M58.733,161.133H41.667c-5.12,0-8.533-3.413-8.533-8.533c0-5.12,3.413-8.533,8.533-8.533h17.067
			c5.12,0,8.533,3.413,8.533,8.533C67.267,157.72,63.853,161.133,58.733,161.133z"/>
		<path style="fill:#231F1F;" d="M58.733,195.267H41.667c-5.12,0-8.533-3.413-8.533-8.533c0-5.12,3.413-8.533,8.533-8.533h17.067
			c5.12,0,8.533,3.413,8.533,8.533C67.267,191.853,63.853,195.267,58.733,195.267z"/>
		<path style="fill:#231F1F;" d="M58.733,229.4H41.667c-5.12,0-8.533-3.413-8.533-8.533c0-5.12,3.413-8.533,8.533-8.533h17.067
			c5.12,0,8.533,3.413,8.533,8.533C67.267,225.987,63.853,229.4,58.733,229.4z"/>
		<path style="fill:#231F1F;" d="M58.733,263.533H41.667c-5.12,0-8.533-3.413-8.533-8.533s3.413-8.533,8.533-8.533h17.067
			c5.12,0,8.533,3.413,8.533,8.533S63.853,263.533,58.733,263.533z"/>
		<path style="fill:#231F1F;" d="M58.733,297.667H41.667c-5.12,0-8.533-3.413-8.533-8.533c0-5.12,3.413-8.533,8.533-8.533h17.067
			c5.12,0,8.533,3.413,8.533,8.533C67.267,294.253,63.853,297.667,58.733,297.667z"/>
		<path style="fill:#231F1F;" d="M58.733,331.8H41.667c-5.12,0-8.533-3.413-8.533-8.533c0-5.12,3.413-8.533,8.533-8.533h17.067
			c5.12,0,8.533,3.413,8.533,8.533C67.267,328.387,63.853,331.8,58.733,331.8z"/>
		<path style="fill:#231F1F;" d="M58.733,365.933H41.667c-5.12,0-8.533-3.413-8.533-8.533s3.413-8.533,8.533-8.533h17.067
			c5.12,0,8.533,3.413,8.533,8.533S63.853,365.933,58.733,365.933z"/>
		<path style="fill:#231F1F;" d="M58.733,400.067H41.667c-5.12,0-8.533-3.413-8.533-8.533S36.547,383,41.667,383h17.067
			c5.12,0,8.533,3.413,8.533,8.533S63.853,400.067,58.733,400.067z"/>
		<path style="fill:#231F1F;" d="M58.733,434.2H41.667c-5.12,0-8.533-3.413-8.533-8.533s3.413-8.533,8.533-8.533h17.067
			c5.12,0,8.533,3.413,8.533,8.533S63.853,434.2,58.733,434.2z"/>
		<path style="fill:#231F1F;" d="M58.733,468.333H41.667c-5.12,0-8.533-3.413-8.533-8.533s3.413-8.533,8.533-8.533h17.067
			c5.12,0,8.533,3.413,8.533,8.533S63.853,468.333,58.733,468.333z"/>
		<path style="fill:#231F1F;" d="M484.547,511H408.6V-1h75.947C499.053-1,511,10.947,511,25.453v458.24
			C511,499.053,499.053,511,484.547,511z M425.667,493.933h58.88c5.12,0,9.387-4.267,9.387-9.387V25.453
			c0-5.12-4.267-9.387-9.387-9.387h-58.88V493.933z"/>
		<path style="fill:#231F1F;" d="M468.333,58.733h-17.067c-5.12,0-8.533-3.413-8.533-8.533s3.413-8.533,8.533-8.533h17.067
			c5.12,0,8.533,3.413,8.533,8.533S473.453,58.733,468.333,58.733z"/>
		<path style="fill:#231F1F;" d="M468.333,92.867h-17.067c-5.12,0-8.533-3.413-8.533-8.533s3.413-8.533,8.533-8.533h17.067
			c5.12,0,8.533,3.413,8.533,8.533S473.453,92.867,468.333,92.867z"/>
		<path style="fill:#231F1F;" d="M468.333,127h-17.067c-5.12,0-8.533-3.413-8.533-8.533s3.413-8.533,8.533-8.533h17.067
			c5.12,0,8.533,3.413,8.533,8.533S473.453,127,468.333,127z"/>
		<path style="fill:#231F1F;" d="M468.333,161.133h-17.067c-5.12,0-8.533-3.413-8.533-8.533c0-5.12,3.413-8.533,8.533-8.533h17.067
			c5.12,0,8.533,3.413,8.533,8.533C476.867,157.72,473.453,161.133,468.333,161.133z"/>
		<path style="fill:#231F1F;" d="M468.333,195.267h-17.067c-5.12,0-8.533-3.413-8.533-8.533c0-5.12,3.413-8.533,8.533-8.533h17.067
			c5.12,0,8.533,3.413,8.533,8.533C476.867,191.853,473.453,195.267,468.333,195.267z"/>
		<path style="fill:#231F1F;" d="M468.333,229.4h-17.067c-5.12,0-8.533-3.413-8.533-8.533c0-5.12,3.413-8.533,8.533-8.533h17.067
			c5.12,0,8.533,3.413,8.533,8.533C476.867,225.987,473.453,229.4,468.333,229.4z"/>
		<path style="fill:#231F1F;" d="M468.333,263.533h-17.067c-5.12,0-8.533-3.413-8.533-8.533s3.413-8.533,8.533-8.533h17.067
			c5.12,0,8.533,3.413,8.533,8.533S473.453,263.533,468.333,263.533z"/>
		<path style="fill:#231F1F;" d="M468.333,297.667h-17.067c-5.12,0-8.533-3.413-8.533-8.533c0-5.12,3.413-8.533,8.533-8.533h17.067
			c5.12,0,8.533,3.413,8.533,8.533C476.867,294.253,473.453,297.667,468.333,297.667z"/>
		<path style="fill:#231F1F;" d="M468.333,331.8h-17.067c-5.12,0-8.533-3.413-8.533-8.533c0-5.12,3.413-8.533,8.533-8.533h17.067
			c5.12,0,8.533,3.413,8.533,8.533C476.867,328.387,473.453,331.8,468.333,331.8z"/>
		<path style="fill:#231F1F;" d="M468.333,365.933h-17.067c-5.12,0-8.533-3.413-8.533-8.533s3.413-8.533,8.533-8.533h17.067
			c5.12,0,8.533,3.413,8.533,8.533S473.453,365.933,468.333,365.933z"/>
		<path style="fill:#231F1F;" d="M468.333,400.067h-17.067c-5.12,0-8.533-3.413-8.533-8.533s3.413-8.533,8.533-8.533h17.067
			c5.12,0,8.533,3.413,8.533,8.533S473.453,400.067,468.333,400.067z"/>
		<path style="fill:#231F1F;" d="M468.333,434.2h-17.067c-5.12,0-8.533-3.413-8.533-8.533s3.413-8.533,8.533-8.533h17.067
			c5.12,0,8.533,3.413,8.533,8.533S473.453,434.2,468.333,434.2z"/>
		<path style="fill:#231F1F;" d="M468.333,468.333h-17.067c-5.12,0-8.533-3.413-8.533-8.533s3.413-8.533,8.533-8.533h17.067
			c5.12,0,8.533,3.413,8.533,8.533S473.453,468.333,468.333,468.333z"/>
		<path style="fill:#231F1F;" d="M348.013,357.4H161.987c-14.507,0-26.453-11.947-26.453-26.453V179.053
			c0-14.507,11.947-26.453,26.453-26.453H347.16c14.507,0,26.453,11.947,26.453,26.453v151.04
			C374.467,345.453,362.52,357.4,348.013,357.4z M161.987,169.667c-5.12,0-9.387,4.267-9.387,9.387v151.04
			c0,5.12,4.267,9.387,9.387,9.387H347.16c5.12,0,9.387-4.267,9.387-9.387v-151.04c0-5.12-4.267-9.387-9.387-9.387H161.987z"/>
		<path style="fill:#231F1F;" d="M348.013,118.467H161.987c-14.507,0-26.453-11.947-26.453-26.453V-1h238.933v93.013
			C374.467,106.52,362.52,118.467,348.013,118.467z M152.6,16.067v75.947c0,5.12,4.267,9.387,9.387,9.387H347.16
			c5.12,0,9.387-4.267,9.387-9.387V16.067H152.6z"/>
		<path style="fill:#231F1F;" d="M374.467,511H135.533v-93.013c0-14.507,11.947-26.453,26.453-26.453H347.16
			c14.507,0,26.453,11.947,26.453,26.453V511H374.467z M152.6,493.933h204.8v-75.947c0-5.12-4.267-9.387-9.387-9.387H161.987
			c-5.12,0-9.387,4.267-9.387,9.387V493.933z"/>
	</g>
</g>
</svg>